<svg width="29" height="15" viewBox="0 0 29 15" fill="none" xmlns="http://www.w3.org/2000/svg">
<path d="M8.22898 11.2C8.32232 11.32 8.42232 11.5333 8.52898 11.84C8.63565 12.1467 8.68232 12.4333 8.66898 12.7C8.30898 12.9133 7.89565 13.1267 7.42898 13.34C6.96232 13.5533 6.50898 13.7467 6.06898 13.92C5.64232 14.0933 5.28232 14.2267 4.98898 14.32C4.64232 14.2133 4.26232 14.0467 3.84898 13.82C3.43565 13.5933 3.06232 13.3267 2.72898 13.02C2.40898 12.7 2.20232 12.38 2.10898 12.06L2.54898 6.34L1.00898 6.64L0.508984 5.28L2.56898 3.5L2.42898 1.9C2.65565 1.66 2.92898 1.42667 3.24898 1.2C3.56898 0.959999 3.87565 0.779999 4.16898 0.659999L4.90898 1.18L4.82898 3.96C5.37565 3.90667 5.93565 3.87333 6.50898 3.86C7.09565 3.84667 7.67565 3.86667 8.24898 3.92L8.44898 5.52L7.82898 6.16C6.76232 6.08 5.74232 6.06 4.76898 6.1C4.67565 6.7 4.60898 7.35333 4.56898 8.06C4.52898 8.76667 4.52898 9.46667 4.56898 10.16C4.60898 10.84 4.70232 11.4667 4.84898 12.04L8.22898 11.2ZM24.4409 11.42C24.5609 11.58 24.6809 11.8067 24.8009 12.1C24.9209 12.3933 24.9942 12.6933 25.0209 13L22.3209 14.32C21.9742 14.1467 21.6075 13.92 21.2209 13.64C20.8342 13.36 20.5275 13.0533 20.3009 12.72C20.5409 11.88 20.7009 11.0333 20.7809 10.18C20.8609 9.32667 20.8809 8.53333 20.8409 7.8C20.8142 7.05333 20.7409 6.44 20.6209 5.96C20.1675 6.14667 19.6875 6.52667 19.1809 7.1C18.6742 7.67333 18.2075 8.35333 17.7809 9.14L17.6609 14C17.3675 14.08 17.0275 14.12 16.6409 14.12C16.2542 14.12 15.9075 14.08 15.6009 14C15.1875 13.56 14.8475 13.06 14.5809 12.5C14.7809 11.5 15.0809 10.56 15.4809 9.68C15.5342 8.93333 15.5409 8.23333 15.5009 7.58C15.4609 6.92667 15.3875 6.38667 15.2809 5.96C14.7475 6.16 14.2142 6.56667 13.6809 7.18C13.1475 7.78 12.6675 8.48 12.2409 9.28L12.1209 14C11.8275 14.08 11.4875 14.12 11.1009 14.12C10.7142 14.12 10.3675 14.08 10.0609 14C9.64753 13.56 9.30753 13.06 9.04086 12.5C9.16086 11.8733 9.32086 11.2733 9.52086 10.7C9.73419 10.1267 9.97419 9.57333 10.2409 9.04V8.88L10.0009 6.12L8.26086 6.56C8.16753 6.4 8.05419 6.18 7.92086 5.9C7.78753 5.60667 7.70753 5.30667 7.68086 5L10.3809 3.68C10.5142 3.69333 10.7009 3.76667 10.9409 3.9C11.1942 4.03333 11.4409 4.18 11.6809 4.34C11.9342 4.48667 12.1209 4.61333 12.2409 4.72L12.1609 6.12C12.8275 5.36 13.4742 4.76667 14.1009 4.34C14.7409 3.9 15.2675 3.68 15.6809 3.68C15.9075 3.78667 16.1475 3.99333 16.4009 4.3C16.6675 4.60667 16.9075 4.94667 17.1209 5.32C17.3342 5.68 17.4742 6.02 17.5409 6.34C18.2475 5.51333 18.9475 4.86667 19.6409 4.4C20.3475 3.92 20.9409 3.68 21.4209 3.68C21.6209 3.78667 21.8409 3.97333 22.0809 4.24C22.3209 4.50667 22.5409 4.80667 22.7409 5.14C22.9409 5.46 23.0809 5.78 23.1609 6.1L22.8209 11.84L24.4409 11.42ZM27.1451 14.32C26.7451 14.1867 26.3784 13.9867 26.0451 13.72C25.7117 13.44 25.4651 13.1333 25.3051 12.8C25.3317 12.5867 25.4251 12.34 25.5851 12.06C25.7451 11.78 25.9384 11.5267 26.1651 11.3C26.3917 11.06 26.6117 10.9 26.8251 10.82C27.1051 10.8733 27.3717 10.9933 27.6251 11.18C27.8784 11.3533 28.0984 11.5533 28.2851 11.78C28.4851 11.9933 28.6184 12.2 28.6851 12.4C28.6584 12.64 28.5584 12.8933 28.3851 13.16C28.2117 13.4267 28.0117 13.6667 27.7851 13.88C27.5717 14.08 27.3584 14.2267 27.1451 14.32Z" fill="black"/>
</svg>
